# xmcd
#
# Track frame offsets: 
#        150
#        20377
#        39834
#        62128
#        80074
#        92748
#        109542
#        125552
#        144490
#        163513
#        178961
#        193838
#        215487
#        232921
#        257872
#        274295
#        294290
#        312547
#        327075
#
# Disc length: 4554 seconds
#
# Revision: 5
# Processed by: cddbd v1.5.2PL0 Copyright (c) Steve Scherf et al.
# Submitted via: ExactAudioCopy v1.1
#
DISCID=1711c813
DTITLE=Various Artist - Blue Rose Broadcasts Vol.1 [CD 2)
DYEAR=1999
DGENRE=Country
TTITLE0=Todd Thibaud - Finding Out
TTITLE1=Todd Thibaud - Little Mystery
TTITLE2=Todd Thibaud - Anywhere
TTITLE3=Todd Thibaud - Cold
TTITLE4=Todd Thibaud - 2am
TTITLE5=Todd Thibaud - That Wasn't Me
TTITLE6=Russ Tolman - You Oughta See Her Drive
TTITLE7=Russ Tolman - Salinas
TTITLE8=Russ Tolman - Two Drinks Too Many
TTITLE9=Andy Van Dyke - Is You Heart Still Mine
TTITLE10=Andy Van Dyke - Long Cold Summer
TTITLE11=Andy Van Dyke - Eleven Roses
TTITLE12=Shakin' Apostles - After The Opera
TTITLE13=Shakin' Apostles - Tucson
TTITLE14=Shakin' Apostles - Wild Wild West
TTITLE15=Shakin' Apostles - Give The World A Spin
TTITLE16=Markus Rill - An Eye For An Eye
TTITLE17=Markus Rill - Snake Tattoo
TTITLE18=Markus Rill - A Girl Called Jo
EXTD=Sony Musik -1994\n(5 CD-Box)
EXTT0=
EXTT1=
EXTT2=
EXTT3=
EXTT4=
EXTT5=
EXTT6=
EXTT7=
EXTT8=
EXTT9=
EXTT10=
EXTT11=
EXTT12=
EXTT13=
EXTT14=
EXTT15=
EXTT16=
EXTT17=
EXTT18=
PLAYORDER=
